<svg xmlns="http://www.w3.org/2000/svg" viewBox="0 0 64 64" width="64" height="64">
  <rect width="64" height="64" rx="8" fill="#0a0a0a"/>
  <g transform="translate(8, 12)">
    <rect x="0" y="20" width="6" height="22" fill="#d4af37"/>
    <rect x="9" y="10" width="8" height="32" fill="#d4af37"/>
    <rect x="20" y="0" width="10" height="42" fill="#f4c430"/>
    <rect x="33" y="14" width="6" height="28" fill="#d4af37"/>
    <rect x="42" y="22" width="5" height="20" fill="#d4af37"/>
    <rect x="11" y="14" width="2" height="2" fill="#0a0a0a"/>
    <rect x="11" y="19" width="2" height="2" fill="#0a0a0a"/>
    <rect x="11" y="24" width="2" height="2" fill="#0a0a0a"/>
    <rect x="11" y="29" width="2" height="2" fill="#0a0a0a"/>
    <rect x="11" y="34" width="2" height="2" fill="#0a0a0a"/>
    <rect x="22" y="4" width="2" height="2" fill="#0a0a0a"/>
    <rect x="26" y="4" width="2" height="2" fill="#0a0a0a"/>
    <rect x="22" y="9" width="2" height="2" fill="#0a0a0a"/>
    <rect x="26" y="9" width="2" height="2" fill="#0a0a0a"/>
    <rect x="22" y="14" width="2" height="2" fill="#0a0a0a"/>
    <rect x="26" y="14" width="2" height="2" fill="#0a0a0a"/>
    <rect x="22" y="19" width="2" height="2" fill="#0a0a0a"/>
    <rect x="26" y="19" width="2" height="2" fill="#0a0a0a"/>
    <rect x="22" y="24" width="2" height="2" fill="#0a0a0a"/>
    <rect x="26" y="24" width="2" height="2" fill="#0a0a0a"/>
    <rect x="22" y="29" width="2" height="2" fill="#0a0a0a"/>
    <rect x="26" y="29" width="2" height="2" fill="#0a0a0a"/>
    <rect x="22" y="34" width="2" height="2" fill="#0a0a0a"/>
    <rect x="26" y="34" width="2" height="2" fill="#0a0a0a"/>
    <rect x="35" y="18" width="2" height="2" fill="#0a0a0a"/>
    <rect x="35" y="23" width="2" height="2" fill="#0a0a0a"/>
    <rect x="35" y="28" width="2" height="2" fill="#0a0a0a"/>
    <rect x="35" y="33" width="2" height="2" fill="#0a0a0a"/>
  </g>
</svg>
